<svg xmlns="http://www.w3.org/2000/svg" viewBox="0 0 512 512"><path d="M256 512c141.002 0 256-115.003 256-256C512 114.998 397.002 0 256 0S0 115.003 0 256s115.003 256 256 256z" fill="#ff757c"/><path d="M256 127.644c125.136 0 226.569 101.437 226.569 226.569 0 7.857-.402 15.616-1.178 23.265C438.127 457.577 353.424 512 256 512S73.877 457.582 30.613 377.483a229.046 229.046 0 0 1-1.182-23.269c0-125.137 101.442-226.57 226.569-226.57z" fill="#0e7886"/><path d="M397.556 177.315c42.132 33.759 71.947 82.242 81.623 137.662-.684-1.048-1.381-2.425-2.083-4.466-4.425 1.45-4.568 1.57-9.792 2.439l-.231.319c-2.078 2.961.106 1.709-3.547 4.794-4.346 3.658-7.178 8.651-12.037 11.612-.587 5.173.43 6.337-.873 12.489-.508 2.268-3.048 8.365-6.023 7.903-.942-.176-4.933-10.05-5.875-12.78-1.598-4.646-3.409-8.074-4.568-13.418-.651-2.85-1.09-8.309-1.741-10.226-3.118.462-2.979 2.443-5.954.351-2.102-1.515-1.155-2.439-2.323-4.707-2.462-2.323-5.002-4.646-7.538-6.97-1.963-.637-9.505.462-12.702.115-5.727-.527-6.231-.176-9.639-4.762-6.027.296-5.515 2.554-11.395-2.499-3.843-3.252-3.118-8.48-8.702-5.519-.212 4.762 2.106 5.815 4.208 8.018 1.52 1.686 3.409 2.845 4.203 5.108.074.065.439 2.208.513 2.499 5.441.351 6.743-2.259 9.718-4.466 2.905 2.725.074 3.196 4.282 5.339 3.335 1.69 2.684.702 4.854 3.427 1.09 3.658-7.464 13.593-10.3 15.394-2.175 1.395-3.33.582-5.293 2.199-2.901 2.448.365 2.097-4.711 3.954-5.441 1.977-10.813 6.157-16.54 6.508a2398.76 2398.76 0 0 1-3.7-10.221c-3.63-11.676-3.483-7.145-7.187-13.187-1.741-2.619-1.016-4.3-2.175-6.623-.804-1.741-2.028-2.499-3.122-4.642-1.667-3.312-3.621-8.48-7.469-7.958-.799 2.61 3.552 11.441 4.637 13.588 1.09 2.152 2.831 3.081 3.339 6.161.725 4.235-.143 3.709 2.175 6.554 4.864 5.861-.217 4.822 7.33 10.568 5.653 4.305 4.208 5.579 6.6 11.334 3.7 1.039 14.725-3.889 16.604-2.439 2.249 4.004-2.605 10.392-3.838 13.879-4.065 11.676-11.173 11.505-16.614 20.447-2.97 4.827-4.351 5.464-7.108 11.274-3.122 6.563 6.309 24.743.656 32.359-1.233 1.737-5.224 2.785-10.226 8.074-5.298 5.746.143 4.762-1.889 14.341-1.593 2.208-3.552 2.323-5.51 3.898-.725 2.259-.143 4.055-1.381 6.85-1.307 3.367-1.52 1.566-3.413 4.3-1.376 2.143-1.229 3.016-2.827 4.993-1.376 1.806-2.106 2.319-3.404 3.487-6.314 5.81-19.879 5.981-21.038 5.168-3.196-2.725-1.016-3.423-1.811-7.256-.776-3.372-2.563-6.194-4.055-8.794l-.152-.268c-.721-1.275-1.376-2.499-1.741-3.663-2.614-8.249-1.667-14.512-6.235-22.881-5.732-10.808 3.187-16.438 2.822-22.54-.143-1.626-.721-2.614-.873-3.894-1.085-6.739-1.732-12.776-6.231-18.064-4.937-5.746-4.282-3.718-2.688-13.182 2.028-10.863-2.61-8.078-9.141-8.365-3.196-9.87-9.436-5.058-15.671-2.148-3.921 1.797-5.367-.522-9.796.115-9.866 1.335-2.102 5.579-15.307-4.877-5.515-4.36-1.815-2.152-5.076-7.612-1.085-1.977-4.425-4.586-5.954-6.568-5.002-6.272.947-12.605.074-19.805-1.524-13.362-3.7-1.746 3.774-17.893 3.921-8.596 9.866-8.651 11.395-12.489 1.307-3.423.434-5.866 2.901-9.002 2.175-2.554 5.298-2.032 6.531-6.041 1.741-4.937-1.598-5.57-5.224-5.695-1.52-5.168-1.52-3.894-.365-8.656.656-2.674.074-3.954.656-6.623 1.45-6.679 12.84-.055 16.106-2.79 1.52-2.845 1.741-5.63 0-8.365-1.82-2.73-4.208-2.383-5.441-4.993 2.757-1.857.725-.231 3.118-.757 2.827-.637 2.462-1.455 5.801-2.088 2.979-.587 4.868-3.312 7.764-5.168 4.134-2.674 2.175-5.062 7.182-5.866 8.051-1.399 2.827-1.164 3.704-8.66 1.229-.462 2.388-.993 3.547-1.51 2.54 3.312-.651 1.977 2.393 4.18.799-.462 1.741-.924 2.614-1.386-.439-3.607-2.102-2.91-3.192-7.376-3.991.637-5.441 4.004-8.632 2.785-3.118-1.159-3.265-5.635-3.118-9.353 1.159-2.785 6.96-4.295 9.205-4.997 3.635-1.219 3.122-3.658 6.457-6.974 4.355-4.355 1.159.06 3.265-5.57 4.79-.18 2.54-.351 5.367-1.801l.143-.055.291-.12c1.672-.757 3.847-.928 6.023-1.681 7.977-2.67 11.242-1.335 17.043 1.039 4.499 1.861 18.064 1.917 19.08 7.616-3.261 3.418-6.379.924-11.099 1.219.868 4.411 1.229 4.411 5.224 5.63.656-2.092-.291-1.275.799-2.614 1.307.291 2.614.522 3.917.762 1.312-4.476 2.831-3.834 7.261-4.36-.73-3.081-1.529-2.208.139-4.646 4.577.471.873.065 3.122 3.723 3.192-.411 6.314-3.954 10.734-4.416 2.757-.291 2.614.757 6.526.346 3.192-.346 3.044-1.51 6.245-.171 1.155-2.152 0-2.097 2.827-2.614 4.346-.757 8.124 1.912 12.328 2.499-3.113-3.829-6.092-3.081-2.245-9.468 4.859-.988 5.293-.291 7.399 3.372 1.192-.67 1.7-1.344 2.291-1.686l.005-.007zM153.56 490.661a255.19 255.19 0 0 1-22.045-10.933 9.748 9.748 0 0 1-.236-.993c-1.085-6.452 1.672-7.15-1.381-17.898-2-7.108-1.196-23.948-3.312-32.581-.337-1.376-.753-2.545-1.256-3.436-1.958-3.247-6.748-4.757-10.586-7.376-.222-.051-.365-.115-.434-.231-5.298-3.718-10.304-18.3-14.512-23.754-1.954-2.619-3.187-1.46-4.06-5.579-.942-3.774.508-3.132 1.746-6.277-6.457-11.847 8.341-11.676 5.298-25.907-.656-2.614-2.536-6.272-4.134-7.427-3.048 1.335-1.603 2.083-3.196 4.642a897.43 897.43 0 0 1-7.321-4.18c-7.473-7.205-3.487-1.981-5.584-6.683-4.499-9.875-8.785-4.351-14.152-9.233-2.397-2.037-2.831-5.233-6.817-4.646-6.023.813-2.688 1.741-8.923-1.169-5.298-2.499-10.808-5.399-14.512-8.771-.143-5.228 1.746-5.464-1.52-10.337-.577-.905-1.229-1.746-1.889-2.55 10.207-46.442 34.65-87.54 68.533-118.485 2.633.919 6.115.314 8.729.208.938-1.741 1.52-3.256 3.192-3.894.651-.231 1.45-.286 2.536-.231.143.864.365 1.741.582 2.61 0 .065.148.642.074.527.074-.12.143.346.212.517 4.577-2.67.73-2.73 3.192-7.552-3.843-.757-3.335-.296-5.732-2.734 2.328-2.554 6.817-3.427 10.157-3.192-.222 2.328-1.307 2.268-.43 4.24 2.61-1.626 4.425-5.977 8.628-5.168.799.577 1.746 1.104 2.614 1.626-2.18 2.032-5.441 2.152-8.268 3.312-1.238 12.609 3.991 2.037 2.245 10.692 3.118-.231 6.166-2.499 7.325-4.822-1.159-1.51-2.831-1.51-3.769-3.312.73-2.323 2.291-4.083 4.499-5.131 1.492-.707 3.275-1.085 5.298-1.085 23.066.176 12.11 1.219 19.223 4.476 1.593.693 4.42 1.048 5.367 2.439 1.45 2.208.074 4.295 2.393 6.041 2.032 1.51 2.323-.06 5.007 3.316-.577 1.912-1.958 3.889-4.785 3.949-3.917.055-1.598-2.619-5.806-2.208.079 3.944 3.991 5.459.36 7.607-3.192 1.921-1.164-.693-3.552.642-.074.06-.291.176-.36.236a1.938 1.938 0 0 0-.365.406c-.43.466-.799.873-1.155 1.284-5.801-1.575-4.711-.873-8.198-4.707-1.302-1.45-1.52-1.801-3.843-1.626-1.45.055-3.335.693-4.716-.582 2.831-3.543 4.212-.115 8.346-2.212.725-.351 5.293-3.889 6.023-4.707-1.233-2.79-.148-.471-1.954-2.268-4.065-4.12-5.233-3.081-10.734-3.081-2.582 2.97-4.513 6.642-7.325 8.254-1.7.975-3.718 1.196-6.388.055 1.233 4.998 4.425 1.164 4.711 7.201-2.102-.406-3.192-1.455-5.367-.697-4.646 1.741-.508 1.566-.148 2.499 0 .06 2.175.291 0 1.104-2.397.868-.365-.466-5.002-3.196a195.007 195.007 0 0 0 1.958-3.598c-3.769 1.164-8.489 3.021-12.909 5.168-5.011 2.499-9.723 5.349-12.554 7.958-.074 4.36.725 1.45 1.164 6.628 6.743.402 4.568 2.429 11.316 4.351 1.298.356 2.974.702 5.007 1.048 0 3.256-2.905 5.695-.878 9.067 4.716 3.302 4.859-3.141 6.023-7.261 15.967-3.335 8.272-8.027 12.397-16.812.619-1.312 1.496-2.711 2.762-4.222 1.229.06 6.235.587 7.325.813 3.63.637 1.672 1.51 5.589 3.252-.074 3.141-1.667 7.205 2.974 6.452 3.556-.633 2.762-3.427 7.108-4.125 1.954 4.591 1.45 6.568 2.319 12.083 10.448 4.069 5.801 7.376 3.769 14.993 1.312.637 2.684 1.219 4.065 1.797-.069 2.208-.148 4.36-.217 6.512-.217 0-11.177-2.388-11.898-2.614 1.667-4.767 4.716-4.822 6.674-9.699-3.917.693-3.63 1.912-6.457 2.785-2.536.757-4.494.231-7.178.582-.942 3.132-.074-2.734.222 1.27.143 1.515.873.065-.148 1.686-3.63-1.686-2.393-5.635-9.141-1.977 1.524.697 3.044 1.335 4.642 1.977-.212 4.466-.577 1.099-1.52 4.065-2.323 7.607 6.309 2.901 8.559 2.499-.582 4.009-3.048 4.009-6.531 5.108-3.838 1.164-5.002 2.734-8.051 3.432 0-4.767-.721-.757 1.376-4.065-3.048.286-5.298 1.681-8.198 2.905l-.286.111c-3.727 1.52-4.291 1.746-4.72 6.508-3.192.984-6.891 2.097-9.141 4.42-2.245 2.148-4.499 4.291-6.679 6.383-.212.176-.365.351-.499.467.799 5.981 0 6.097-3.635 8.429-3.044 1.968-4.06 1.912-6.887 4.411-9.067 8.134-4.711 4.351-4.212 18.355-1.884-.577-3.695-1.219-5.436-1.857-1.381-9.298.503-6.212-6.965-8.365-8.055-2.323-6.97 1.626-10.304 2.323-3.7.808-5.515-3.372-10.882.115-2.97 2.028-5.801 3.367-6.526 6.965-.868 4.36-2.827 7.547-2.54 12.374.513 13.076 12.406 13.824 15.454 7.727 2.028-4.065 1.524-6.272 8.124-5.228.651 3.487-.365 6.041-1.238 8.716-.577 1.566-2.175 4.411-1.376 6.568 4.716 1.917 4.859-1.69 11.099 2.028.439 6.212-2.827 13.182 1.958 16.785 3.695 2.73 3.917.291 7.178-.286 3.63-.637 2.979 1.626 6.318 2.152 1.884-2.328 1.085-.868 2.323-3.723 2.175-4.928 2.753-2.61 7.907-5.626.503-.291.938-.587 1.45-.933.577 1.219 1.233 2.383 1.806 3.543 3.774-4.471 4.208-.115 8.563 1.104 1.875.513 3.205.697 4.235.711 3.164.046 3.487-1.492 7.806.037.513.24 1.164.411 1.746.587.069 0 .286.115.286.236.079.06.291.231.365.296.725.808.804 1.626 1.381 2.494 2.974 2.845 5.949 5.695 8.85 8.48 5.727 2.268 5.727-1.977 12.258 4.351 2.757 2.614 1.52 2.563 3.044 5.926.222.527.656 1.044.942 1.686.582 1.57 1.233 3.076 1.889 4.586 2.97 3.894 7.034 1.455 11.168 5.464 2.393 2.323.582 1.626 5.875 2.554 8.198 1.335 5.011.582 11.247 5.288 2.393 1.741 2.97.753 5.219 2.263 3.122 4.355 2.323 9.062-.286 12.896-8.055 11.732-5.298 9.815-5.663 19.112-.291 5.339-1.815 16.378-6.822 17.713-18.203 5.118-7.616 8.66-12.401 17.662-1.376 2.559-2.397 3.196-3.265 5.233-3.621 8.475-1.085 11.325-11.824 9.408 1.021 1.797.365.577 1.381 2.203 3.192 4.937 3.7 8.66-2.831 9.87-5.441 1.048-3.118 0-3.626 6.041-2.106.873-3.048 0-4.425 1.395l.513.956-.008-.004zm-47.809-306.026c1.404-.185 1.399-.794 5.076-1.686-.291-1.219-.513-1.219-.799-1.681l-.115-.231a237.008 237.008 0 0 0-4.162 3.603v-.005zm193.901 67.361l-.143-.102c-.508-.346-1.012-.693-1.446-1.099-3.192-2.85-3.852-5.399-7.399-4.762-.079 2.674.291 2.785 1.593 4.531 4.933 6.157 3.409 4.069 7.251 6.332l.143.083c.91.522 1.963 1.252 3.409 2.3-4.933 4.346-.36 4.813-3.409 6.268l-.143.069a7.078 7.078 0 0 0-.794.346c-1.021-2.559 1.229-1.335-1.381-5.053-1.45-1.917-2.827-2.499-5.076-3.552-5.663-2.67-4.933-4.757-8.415-8.245-3.921.12-3.044 1.339-5.801 2.734-3.335 1.621-2.827-.286-6.748.055-3.192 5.64 1.376.933-4.425 5.579-6.965 5.399-1.233 11.034-12.401 12.725-.799.115-1.09 0-1.884.286-2.111.753-.878.115-2.111 1.335.947 2.212-.36 1.857 3.413 2.383 6.891.924 7.764-3.312 12.771-4.36 2.462-.522 17.916-1.164 19.002-.873 3.335 3.723.582 6.337.582 9.469 3.635 1.917 8.78 2.383 10.886 4.36 2.393 2.263 1.233 1.912 2.393 2.319l.143.046c.439.125 1.072.351 2.18.771 2.901.984 2.753 1.566 5.87 1.797 2.831-9.469-.074-8.48 13.565-4.129 14.217 4.656 7.833.411 13.856 1.048 2.979.296 2.18 1.219 6.314.697.794-1.626 6.669-16.383-.947-14.521-2.249.577-.721 1.39-3.917.577-3.335-.864-.143-1.506-3.838-.988-3.635.527-7.981 3.723-10.813-7.256-1.085-3.954-3.048-7.376-7.542-1.4 1.159 2.032 1.958 2.208 3.261 4.185-.36.577-1.593 2.032-2.028 2.499-2.462 2.439 1.021 1.279-2.974 1.797-2.175-1.626-1.737-3.718-3.843-6.619-3.7-5.409-1.307-2.905-3.192-8.078-1.483-1.302-3.944-2.277-5.954-3.556h-.008zm77.475 156.386c-3.187 1.626-3.626 5.349-6.018 7.436-2.61 2.383-6.097 1.284-7.108 5.695-1.307 5.515 2.175 3.834-1.667 11.034-1.376 2.67-1.45 9.348.656 11.33 6.305 6.092 9.718-9.293 11.168-14.115 1.09-3.427 2.106-7.316 3.265-10.517 1.159-3.426 2.827-6.442-.296-10.863zm-10.443-162.068c.508 7.094 4.711 9.82 7.69 13.071-.36 3.372-1.164 2.499-1.09 7.201 3.556 2.563 6.161 4.125 10.813 2.854.651-5.695-1.164-5.409-2.901-9.298.291-.466 1.085-1.044 1.229-1.159 1.312-1.741.656.693 1.312-2.268-3.409-1.099-8.923-4.591-9.353-9.173 1.667-1.335 1.159-.527 2.388-1.335 2.684-1.746.656.924 2.249-2.037-1.376-2.67-2.901-3.136-6.235-1.801-1.45.582-5.298 3.312-6.097 3.949l-.005-.004zm-29.671 1.862c-2.245-3.132-2.106-4.707-6.457-4.822-1.737 1.861-3.769 4.646-4.711 7.492-1.45 4.3-.434 1.335-.291 5.986-.074.171 0 .411 0 .582-.074 2.785-.73-.527-.291 2.032 3.413-.702.804-.642 3.344-1.455 2.393-.813 9.718-3.021 11.824-2.494 5.002 1.159 9.21 5.113 14.872 1.159-.296-5.053-6.388-6.97-10.595-9.182.222-4.642 1.45-.984 1.159-5.459-1.45-.06-2.323-.291-3.7.291-3.265 1.45-1.45 1.861-1.45 2.383.143 2.494 3.265-.522-.069 2.559-.942.808-2.471.808-3.63.928h-.005zm-84.731-35.2c-.139 8.134 2.688 5.399 5.367 9.413-1.229 3.427-1.45.757-2.822 4.295-1.233 2.965.286.296-.513 5.459 2.106.12 5.224-.633 7.981-.868 3.921-.351 3.843-.697 5.224-4.707-2.175-2.67-4.351-5.344-6.6-8.014-2.836-4.305 0-1.339-.868-4.942a86.908 86.908 0 0 1-1.815-3.834c-3.774 1.286-3.409.935-5.954 3.198z" fill="#15bdb1"/><path d="M395.658 198.584l-2.194-2.194-9.044-9.044-2.194-2.194c-7.136 2.707-16.069 14.406-19.593 21.787l1.095 1.099 9.044 9.044 1.099 1.099c7.381-3.529 19.08-12.457 21.787-19.593v-.004z" fill="#fbb429"/><path d="M395.658 198.584l-2.194-2.194-9.044-9.044-2.194-2.194c-1.649.628-3.386 1.732-5.141 3.15l15.422 15.422c1.418-1.751 2.522-3.492 3.15-5.136v-.004z" fill="#fff"/><path d="M410.803 241.589l-2.194-2.194-9.044-9.044-2.194-2.194c-7.136 2.707-16.069 14.406-19.593 21.787l1.099 1.099 9.044 9.044 1.099 1.099c7.381-3.529 19.08-12.457 21.787-19.597h-.004z" fill="#fbb429"/><path d="M410.803 241.589l-2.194-2.189-9.044-9.048-2.194-2.189c-1.649.624-3.386 1.727-5.141 3.15l15.422 15.422c1.418-1.751 2.526-3.492 3.15-5.141v-.005z" fill="#fff"/><path d="M287.334 90.26l2.194 2.194 9.044 9.044 2.194 2.194c-2.707 7.136-14.406 16.069-21.787 19.597l-1.099-1.099-9.044-9.044-1.099-1.099c3.529-7.376 12.457-19.08 19.593-21.787h.004z" fill="#fbb429"/><path d="M287.334 90.26l2.194 2.194 9.044 9.044 2.194 2.194c-.624 1.649-1.727 3.39-3.15 5.141L282.193 93.41c1.751-1.423 3.492-2.526 5.141-3.15z" fill="#fff"/><path d="M244.328 75.12l2.194 2.194 9.044 9.044 2.194 2.194c-2.707 7.136-14.406 16.069-21.787 19.593l-1.099-1.099-9.044-9.044-1.099-1.099c3.529-7.376 12.457-19.08 19.593-21.787l.004.004z" fill="#fbb429"/><g fill="#fff"><path d="M244.328 75.12l2.194 2.194 9.048 9.044 2.189 2.194c-.624 1.649-1.727 3.39-3.145 5.141L239.188 78.27c1.75-1.423 3.491-2.527 5.14-3.15z"/><path d="M212.205 279.001l26.535 37.726 8.462-10.231-15.016-39.671c1.884-1.626-1.658 1.598 6.092-5.376s41.805-38.28 72.649-63.356l88.833 125.575 8.101-8.101-49.102-156.516c20.069-16.544 35.597-29.74 39.781-34.521 12.789-14.614 24.359-34.105 15.228-52.372-18.272-9.136-37.758 2.439-52.372 15.223-4.785 4.185-17.976 19.713-34.521 39.781l-156.516-49.1-8.101 8.101 125.571 88.833c-25.071 30.849-56.381 64.898-63.351 72.649-6.979 7.75-3.75 4.208-5.376 6.092l-39.671-15.016-10.231 8.462 37.726 26.535c-4.097 7.048-1.764 9.381 5.284 5.284h-.005z"/></g><g fill="#c8cacc"><path d="M212.205 279.001l26.535 37.726 2.041-2.466-25.722-37.227-2.85 1.968h-.004zM171.661 245.141l-2.466 2.042 37.726 26.535 1.968-2.85-37.232-25.727h.004zM310.931 198.09l88.833 125.575 3.122-3.127-86.708-126.73-5.247 4.282zM165.375 83.036l-3.122 3.127 125.571 88.833 4.282-5.247L165.37 83.041l.005-.005z"/></g><path d="M406.133 79.785c-1.797-1.797-3.972-3.062-6.388-3.815l-1.464 4.088a22.035 22.035 0 0 1 4.263 3.321 22.172 22.172 0 0 1 3.321 4.259l4.088-1.464c-.753-2.411-2.018-4.586-3.815-6.388h-.005zm-9.653-4.508c-3.727-.448-7.815.139-11.866 1.695 3.649-.305 7.316.226 10.683 1.598l1.183-3.293zm10.873 15.348c1.376 3.367 1.903 7.03 1.598 10.683 1.561-4.051 2.143-8.138 1.695-11.866l-3.293 1.183z" fill="#15bdb1"/><path d="M184.848 303.592l.032-.032.536-.517.531-.513.54-.522.54-.522.54-.522.545-.527.545-.527.55-.527.554-.531.55-.531.554-.536.554-.54.559-.54.559-.545.563-.545.568-.545.568-.55.568-.55.573-.554.573-.559.577-.559.577-.559.577-.564.582-.568.582-.568.587-.573.587-.573.591-.577.591-.582.591-.582-3.302-3.362-.591.577-.587.577-.587.573-.587.577-.582.568-.577.568-.577.564-.577.563-.573.559-.573.554-.573.554-.568.554-.568.55-.568.55-.563.545-.563.545-.559.54-.559.536-.554.54-.554.536-.554.531-.55.531-.55.527-.545.527-.545.522-.545.522-.54.522-.536.517-.536.522-.536.513-.032.032 3.27 3.395-.003.011zm264.073-1.945l-.559 1.46-.559 1.441-.559 1.418-.559 1.395-.563 1.376-.564 1.353-.563 1.335-.563 1.312-.564 1.293-.568 1.27-.563 1.256-.568 1.233-.568 1.21-.568 1.192-.028.055 4.235 2.074.042-.083.582-1.224.582-1.242.577-1.261.582-1.279.577-1.298.577-1.321.577-1.339.573-1.363.573-1.376.577-1.404.568-1.423.573-1.441.568-1.464.568-1.487-4.406-1.672-.009.004zm-14.489 30.9l-.291.48-.577.951-.577.933-.577.919-.582.896-.582.878-.582.864-.582.845-.582.831-.582.813-.582.799-.587.781-.582.767-.587.748-.587.734-.591.721-.587.702-.587.688-.587.67-.591.66-.587.642-.591.628-.591.614-.591.6-.102.102 3.302 3.367.143-.143.633-.642.628-.656.628-.67.628-.684.624-.697.624-.711.619-.73.619-.744.619-.762.619-.771.614-.79.614-.804.614-.818.61-.836.61-.854.61-.868.605-.887.61-.901.6-.919.605-.933.6-.951.605-.97.6-.988.286-.485-4.041-2.429.016.01zm-24.451 26.743l-.014.009-.605.365-.605.356-.605.342-.605.333-.61.323-.605.309-.61.305-.61.291-.61.282-.61.273-.614.263-.614.254-.614.245-.614.24-.619.226-.619.222-.619.212-.619.203-.624.199-.624.185-.628.18-.624.176-.628.162-.628.157-.633.148-.633.143-.633.134-.637.129-.637.12-.637.115-.642.111-.642.102-.642.097-.647.092-.037.005.6 4.679.079-.014.693-.097.688-.102.684-.111.688-.115.688-.125.688-.129.684-.139.684-.148.679-.152.684-.162.684-.171.684-.18.684-.185.674-.194.679-.203.674-.212.674-.222.679-.231.674-.24.67-.249.674-.259.67-.268.67-.277.67-.291.67-.3.665-.309.665-.319.665-.328.665-.342.665-.351.66-.365.66-.374.66-.383.656-.397.014-.009-2.462-4.018.015-.016zm-34.992 8.096h-.079l-.679-.005-.684-.009-.684-.009-.688-.014-.688-.014-.688-.018-.693-.018-.693-.023-.697-.023-.697-.023-.697-.023-.697-.028-.702-.028-.707-.023-.707-.028-.707-.028-.707-.032-.707-.028-.711-.028-.711-.028-.716-.028-.716-.028-.716-.028-.721-.028-.721-.028-.725-.028-.725-.023-.725-.023-.73-.023-.73-.023-.73-.018-.734-.018-.734-.014-.074-.005-.083 4.716h.065l.721.014.721.018.721.018.716.023.721.023.721.023.716.023.716.028.716.028.716.028.711.028.711.028.711.028.711.028.711.028.711.028.711.028.711.028.711.028.707.028.707.028.711.028.702.023.707.023.707.023.707.018.707.018.707.018.702.014.702.014.702.009.702.009.702.005h.079l.018-4.716-.015.009zm-37.893-.42l-.61.046-.767.065-.776.069-.767.074-.776.079-.776.088-.776.092-.776.097-.781.102-.781.115-.785.12-.785.129-.785.129-.785.143-.79.148-.79.152-.794.162-.794.171-.794.18-.799.189-.799.199-.804.203-.799.208-.804.222-.804.231-.804.24-.808.249-.808.259-.813.268-.813.282-.106.037 1.598 4.439.065-.023.767-.263.762-.249.762-.245.762-.236.762-.222.762-.222.757-.208.757-.203.757-.194.757-.185.753-.18.753-.166.753-.162.748-.152.748-.148.753-.139.748-.129.748-.129.748-.12.744-.111.748-.106.744-.102.744-.092.744-.088.739-.083.739-.079.744-.074.734-.065.739-.06.61-.046-.37-4.702-.03-.004zm-36.904 10.729l-.628.351-.836.48-.836.494-.836.503-.841.522-.836.531-.841.545-.836.554-.841.573-.841.582-.845.6-.845.614-.841.628-.845.637-.845.656-.845.67-.85.684-.85.697-.85.711-.854.725-.854.748-.85.757-.854.771-.212.199 3.215 3.45.18-.162.822-.748.822-.73.818-.711.818-.697.813-.684.818-.67.808-.656.813-.637.808-.624.808-.614.808-.6.804-.582.804-.568.804-.559.799-.54.799-.531.799-.517.799-.503.794-.49.794-.48.79-.466.79-.457.628-.351-2.332-4.101-.011-.004zm-29.458 24.498l-.083.088-.868.988-.845.97-.845.956-.845.947-.841.933-.841.924-.841.91-.836.896-.836.887-.831.878-.831.864-.831.854-.827.841-.827.831-.827.818-.822.808-.822.799-.818.785-.818.776-.157.143 3.21 3.45.176-.162.841-.794.841-.804.841-.813.841-.827.845-.841.845-.85.845-.864.85-.868.85-.882.854-.891.85-.905.854-.919.854-.928.859-.938.859-.951.859-.965.864-.975.864-.984.841-.961.083-.088-3.529-3.127-.005-.009zm-26.646 26.018l-.568.448-.785.614-.79.605-.785.596-.785.587-.781.577-.776.563-.776.554-.776.545-.771.536-.771.527-.771.517-.767.508-.762.499-.762.485-.762.476-.757.471-.757.457-.757.448-.748.439-.748.43-.748.42-.744.416-.744.402-.739.393-.356.185 2.162 4.194.393-.203.776-.416.776-.42.776-.43.781-.443.781-.448.781-.457.785-.471.785-.476.79-.485.79-.499.794-.503.794-.517.794-.527.799-.536.799-.545.804-.554.804-.564.804-.577.808-.587.808-.596.808-.605.813-.614.818-.628.813-.637.563-.448-2.914-3.709.001.003zm-31.925 18.11l-.619.203-.693.222-.693.212-.688.208-.684.199-.684.189-.679.18-.679.176-.674.166-.67.157-.67.148-.67.143-.665.134-.66.129-.66.12-.66.115-.651.106-.651.097-.651.092-.647.083-.642.079-.642.069-.637.065-.637.055-.637.046-.628.042-.628.032-.628.028-.624.023-.619.014-.614.009h-.614l-.614-.005-.605-.009-.236-.009-.171 4.711.291.009.66.014.66.005h.665l.67-.009.67-.018.67-.023.674-.028.684-.042.679-.046.684-.051.684-.06.688-.065.693-.079.693-.083.697-.092.693-.097.702-.102.702-.115.707-.125.707-.125.711-.139.711-.143.711-.152.716-.162.721-.171.721-.176.721-.185.725-.194.73-.203.73-.212.73-.217.734-.226.734-.236.619-.203-1.455-4.485-.008.007zm-35.731 1.464l-.231-.065-.54-.157-.536-.166-.54-.171-.536-.176-.536-.185-.531-.185-.522-.189-.527-.199-.522-.203-.517-.208-.517-.212-.513-.217-.508-.222-.508-.226-.503-.236-.499-.236-.499-.24-.499-.245-.49-.249-.485-.254-.49-.263-.485-.263-.48-.272-.476-.273-.476-.277-.476-.286-.466-.286-.467-.291-.462-.296-.462-.3-.457-.305-.457-.305-.448-.314-.448-.314-.448-.323-.443-.323-.439-.328-.434-.333-.434-.333-.43-.337-.194-.157-2.97 3.663.222.18.462.365.466.36.467.356.476.356.476.351.48.342.485.342.49.337.49.328.494.328.499.323.499.319.503.319.508.309.508.305.517.3.517.296.522.291.527.286.527.282.531.277.536.272.536.263.54.263.545.259.545.249.55.245.554.24.559.236.554.231.563.226.568.222.568.212.573.212.577.203.577.199.582.189.587.185.587.18.591.176.231.065 1.312-4.531v.009zm-29.597-20.027l-.194-.24-.342-.425-.342-.425-.333-.43-.333-.434-.328-.434-.323-.434-.323-.439-.319-.443-.314-.443-.314-.443-.305-.448-.305-.448-.3-.453-.296-.453-.296-.457-.286-.457-.286-.462-.282-.462-.277-.462-.277-.466-.273-.466-.268-.471-.263-.466-.259-.471-.259-.476-.254-.471-.249-.476-.249-.476-.24-.48-.24-.476-.236-.48-.231-.485-.226-.485-.222-.485-.217-.485-.217-.485-.212-.485-.208-.49-.203-.485-.199-.49-.199-.49-.162-.411-4.392 1.704.176.448.208.522.212.522.217.522.222.517.222.517.231.522.236.517.24.517.24.513.245.513.249.513.254.513.259.508.259.508.263.503.273.503.273.499.277.503.282.499.286.499.291.494.291.494.3.494.3.49.3.485.309.49.309.485.314.485.319.48.323.476.328.476.333.476.333.471.342.471.342.467.346.466.351.462.351.462.356.457.36.457.365.457.199.24 3.658-2.974h.009zm-15.195-32.802c-1.363-7.482-1.584-15.025.06-22.484l-4.605-1.016c-1.801 7.958-1.552 16.364-.092 24.35l4.637-.854v.004zm4.531-35.283c3.201-6.794 7.963-13.33 12.702-19.126l-3.635-3.002c-4.951 5.981-9.99 13.034-13.307 20.069l4.24 2.059zm21.976-29.602l.032-.032.402-.425.402-.425.406-.425.411-.43.411-.43.411-.43.416-.43.42-.434.42-.434.42-.434.425-.434.43-.439.43-.439.434-.439.434-.439.439-.443.443-.448.443-.448.443-.443.448-.448.448-.448.457-.453.457-.453.457-.453.462-.457.462-.457.466-.457.467-.462.471-.462.471-.462.476-.466.476-.466.48-.466.48-.471.485-.471.485-.471.49-.476.032-.028-3.289-3.381-.032.032-.49.476-.49.476-.485.471-.485.476-.48.466-.48.471-.476.466-.476.466-.471.466-.471.462-.471.462-.467.462-.462.457-.462.462-.457.457-.457.453-.457.457-.448.453-.448.448-.448.453-.443.448-.443.448-.439.448-.439.443-.434.443-.434.443-.434.443-.43.439-.425.439-.425.439-.42.439-.42.439-.416.434-.411.43-.416.434-.411.434-.406.43-.032.037 3.436 3.229v-.022z" fill="#fff"/></svg>